<?xml version="1.0" standalone="no"?>
<!DOCTYPE svg PUBLIC "-//W3C//DTD SVG 20010904//EN"
 "http://www.w3.org/TR/2001/REC-SVG-20010904/DTD/svg10.dtd">
<svg version="1.0" xmlns="http://www.w3.org/2000/svg"
 width="100.000000pt" height="100.000000pt" viewBox="0 0 100.000000 100.000000"
 preserveAspectRatio="xMidYMid meet">
<metadata>
Created by potrace 1.14, written by Peter Selinger 2001-2017
</metadata>
<g transform="translate(0.000000,100.000000) scale(0.100000,-0.100000)"
fill="#000000" stroke="none">
<path d="M112 808 c-7 -7 -12 -24 -12 -39 0 -26 -3 -28 -47 -31 l-48 -3 0
-235 0 -235 48 -3 c44 -3 47 -5 47 -31 0 -15 5 -32 12 -39 16 -16 200 -16 216
0 16 16 16 140 0 156 -7 7 -25 12 -40 12 -15 0 -28 5 -28 10 0 6 -9 10 -20 10
-11 0 -20 -4 -20 -10 0 -5 -13 -10 -30 -10 -23 0 -30 4 -30 20 0 18 7 20 84
20 l84 0 31 -50 31 -50 78 0 c77 0 79 1 148 49 68 48 70 48 166 54 l97 6 3
-72 3 -72 55 0 55 0 0 235 0 235 -55 0 -55 0 -3 -72 -3 -72 -97 6 c-96 6 -98
6 -166 54 -69 48 -71 49 -148 49 l-78 0 -31 -50 -31 -50 -84 0 c-77 0 -84 2
-84 20 0 16 7 20 30 20 17 0 30 -4 30 -10 0 -5 9 -10 20 -10 11 0 20 5 20 10
0 6 13 10 28 10 15 0 33 5 40 12 16 16 16 140 0 156 -16 16 -200 16 -216 0z
m188 -78 l0 -50 -68 0 c-64 0 -70 2 -80 25 -7 14 -12 37 -12 50 0 24 2 25 80
25 l80 0 0 -50z m-185 -230 l0 -195 -37 -3 -38 -3 0 201 0 201 38 -3 37 -3 0
-195z m845 134 c0 -57 -2 -65 -17 -62 -15 3 -19 16 -21 66 -3 57 -1 62 18 62
18 0 20 -6 20 -66z m-361 -21 c65 -47 67 -48 163 -54 54 -4 120 -13 148 -20
44 -11 50 -16 50 -40 0 -23 -6 -28 -47 -39 -27 -6 -91 -14 -143 -17 -94 -5
-96 -5 -167 -54 -66 -45 -76 -49 -131 -49 l-60 0 -31 50 -31 50 -95 0 -95 0 0
60 0 60 95 0 95 0 31 50 31 50 60 0 c56 0 65 -3 127 -47z m361 -248 c0 -58 -2
-65 -20 -65 -18 0 -20 7 -20 58 0 61 4 72 27 72 9 0 13 -17 13 -65z m-660 -95
l0 -50 -80 0 c-78 0 -80 1 -80 25 0 13 5 36 12 50 10 23 16 25 80 25 l68 0 0
-50z"/>
<path d="M424 566 c-3 -7 -4 -42 -2 -77 l3 -64 78 0 c71 0 81 2 98 24 26 32
24 77 -6 106 -21 22 -33 25 -95 25 -50 0 -72 -4 -76 -14z m146 -41 c10 -12 10
-21 2 -40 -10 -22 -18 -25 -62 -25 l-50 0 0 40 0 40 49 0 c31 0 53 -5 61 -15z"/>
<path d="M652 788 c-7 -7 -12 -37 -12 -68 0 -58 11 -80 42 -80 10 0 18 -4 18
-10 0 -14 37 -12 44 3 5 10 7 10 12 0 7 -15 44 -17 44 -3 0 6 8 10 18 10 31 0
42 22 42 80 0 31 -5 61 -12 68 -7 7 -44 12 -98 12 -54 0 -91 -5 -98 -12z m168
-68 l0 -40 -70 0 -70 0 0 40 0 40 70 0 70 0 0 -40z"/>
<path d="M700 370 c0 -5 -8 -10 -18 -10 -31 0 -42 -22 -42 -80 0 -31 5 -61 12
-68 7 -7 44 -12 98 -12 54 0 91 5 98 12 7 7 12 37 12 68 0 58 -11 80 -42 80
-10 0 -18 5 -18 10 0 14 -37 12 -44 -2 -5 -10 -7 -10 -12 0 -7 14 -44 16 -44
2z m120 -90 l0 -40 -70 0 -70 0 0 40 0 40 70 0 70 0 0 -40z"/>
</g>
</svg>
